<svg id="Layer_1" data-name="Layer 1" xmlns="http://www.w3.org/2000/svg" xmlns:xlink="http://www.w3.org/1999/xlink" viewBox="0 0 76 76"><defs><style>.cls-1{fill:url(#linear-gradient);}</style><linearGradient id="linear-gradient" x1="4.8" y1="996.7" x2="71.2" y2="1063.1" gradientTransform="matrix(1, 0, 0, -1, 0, 1068)" gradientUnits="userSpaceOnUse"><stop offset="0" stop-color="#00aee9"/><stop offset="1" stop-color="#69fabd"/></linearGradient></defs><title>apple-touch-icon-76x76</title><path class="cls-1" d="M59.61.1a16.39,16.39,0,0,0-16.4,16.35V34.57c-1.69.11-3.42.19-5.21.19s-3.51.07-5.21.17V16.45A16.4,16.4,0,0,0,0,16.45V59.76a16.4,16.4,0,0,0,32.79,0V41.64c1.69-.12,3.42-.19,5.21-.19s3.51-.07,5.21-.17V59.76a16.4,16.4,0,0,0,32.79,0V16.45A16.39,16.39,0,0,0,59.61.1ZM16.39,6.8a9.67,9.67,0,0,1,9.68,9.65V35.64a54.87,54.87,0,0,0-13.93,3.94A25.27,25.27,0,0,0,6.73,42.8V16.45A9.68,9.68,0,0,1,16.39,6.8Zm9.68,53a9.68,9.68,0,0,1-19.35,0V55.42c0-3.84,3-7.48,8.13-9.74A47.69,47.69,0,0,1,26.07,42.4Zm33.54,9.65a9.68,9.68,0,0,1-9.68-9.65V40.57a55.28,55.28,0,0,0,13.93-3.94,25.32,25.32,0,0,0,5.41-3.23V59.76a9.68,9.68,0,0,1-9.66,9.65ZM61.15,30.5a47.22,47.22,0,0,1-11.22,3.28V16.45a9.68,9.68,0,0,1,19.35,0v4.34C69.28,24.61,66.24,28.25,61.15,30.5Z"/></svg>