<svg id="Layer_1" data-name="Layer 1" xmlns="http://www.w3.org/2000/svg" xmlns:xlink="http://www.w3.org/1999/xlink" viewBox="0 0 120 120"><defs><style>.cls-1{fill:url(#linear-gradient);}</style><linearGradient id="linear-gradient" x1="7.58" y1="999.42" x2="112.42" y2="1104.26" gradientTransform="matrix(1, 0, 0, -1, 0, 1112)" gradientUnits="userSpaceOnUse"><stop offset="0" stop-color="#00aee9"/><stop offset="1" stop-color="#69fabd"/></linearGradient></defs><title>favicon-120x120</title><path class="cls-1" d="M94.11.16A25.88,25.88,0,0,0,68.22,26V54.58c-2.67.18-5.39.3-8.22.3s-5.54.11-8.22.27V26A25.89,25.89,0,0,0,0,26V94.36a25.89,25.89,0,0,0,51.78,0V65.74c2.67-.18,5.39-.29,8.22-.29s5.54-.11,8.22-.27V94.36a25.89,25.89,0,0,0,51.78,0V26A25.88,25.88,0,0,0,94.11.16ZM25.89,10.74A15.27,15.27,0,0,1,41.17,26v30.3a87.08,87.08,0,0,0-22,6.22,40.26,40.26,0,0,0-8.54,5.09V26A15.28,15.28,0,0,1,25.89,10.74ZM41.17,94.36a15.28,15.28,0,0,1-30.56,0V87.5c0-6.06,4.8-11.8,12.84-15.38a75.88,75.88,0,0,1,17.72-5.18Zm52.94,15.23A15.28,15.28,0,0,1,78.83,94.36V64.06a87.08,87.08,0,0,0,22-6.22,39.89,39.89,0,0,0,8.54-5.1V94.36a15.28,15.28,0,0,1-15.26,15.23Zm2.44-61.43a74.93,74.93,0,0,1-17.72,5.18V26a15.28,15.28,0,0,1,30.56,0v6.86C109.39,38.86,104.59,44.6,96.55,48.16Z"/></svg>