<svg id="Layer_1" data-name="Layer 1" xmlns="http://www.w3.org/2000/svg" xmlns:xlink="http://www.w3.org/1999/xlink" viewBox="0 0 180 180"><defs><style>.cls-1{fill:url(#linear-gradient);}</style><linearGradient id="linear-gradient" x1="11.37" y1="1003.12" x2="168.63" y2="1160.38" gradientTransform="matrix(1, 0, 0, -1, 0, 1172)" gradientUnits="userSpaceOnUse"><stop offset="0" stop-color="#00aee9"/><stop offset="1" stop-color="#69fabd"/></linearGradient></defs><title>apple-touch-icon-180x180</title><path class="cls-1" d="M141.17.25A38.81,38.81,0,0,0,102.33,39V81.88c-4,.27-8.09.44-12.33.44s-8.31.17-12.33.41V39A38.84,38.84,0,0,0,0,39V141.54a38.84,38.84,0,0,0,77.67,0V98.62c4-.27,8.09-.44,12.33-.44s8.31-.17,12.33-.41v43.77a38.84,38.84,0,0,0,77.67,0V39A38.81,38.81,0,0,0,141.17.25ZM38.83,16.11A22.9,22.9,0,0,1,61.75,39V84.41a130.23,130.23,0,0,0-33,9.33A59.64,59.64,0,0,0,16,101.38V39A22.9,22.9,0,0,1,38.83,16.11ZM61.75,141.54a22.92,22.92,0,0,1-45.84,0V131.25c0-9.09,7.2-17.7,19.27-23.06a112.86,112.86,0,0,1,26.57-7.77Zm79.42,22.85a22.92,22.92,0,0,1-22.92-22.85V96.09a131.06,131.06,0,0,0,33-9.33,60.05,60.05,0,0,0,12.8-7.64v62.42a22.91,22.91,0,0,1-22.88,22.85Zm3.65-92.14A112.86,112.86,0,0,1,118.25,80V39a22.92,22.92,0,0,1,45.84,0V49.25C164.09,58.3,156.89,66.91,144.82,72.25Z"/></svg>