<svg id="Layer_1" data-name="Layer 1" xmlns="http://www.w3.org/2000/svg" xmlns:xlink="http://www.w3.org/1999/xlink" viewBox="0 0 152 152"><defs><style>.cls-1{fill:url(#linear-gradient);}</style><linearGradient id="linear-gradient" x1="9.6" y1="1001.39" x2="142.4" y2="1134.19" gradientTransform="matrix(1, 0, 0, -1, 0, 1144)" gradientUnits="userSpaceOnUse"><stop offset="0" stop-color="#00aee9"/><stop offset="1" stop-color="#69fabd"/></linearGradient></defs><title>apple-touch-icon-152x152</title><path class="cls-1" d="M119.21.21A32.77,32.77,0,0,0,86.41,32.9V69.14c-3.38.23-6.83.37-10.41.37s-7,.15-10.41.35v-37A32.8,32.8,0,0,0,0,32.9v86.62a32.8,32.8,0,0,0,65.59,0V83.28C69,83.05,72.42,82.9,76,82.9s7-.14,10.41-.34v37a32.8,32.8,0,0,0,65.59,0V32.9A32.77,32.77,0,0,0,119.21.21ZM32.79,13.6A19.34,19.34,0,0,1,52.14,32.9V71.28a110.26,110.26,0,0,0-27.86,7.88,50.52,50.52,0,0,0-10.81,6.45V32.9A19.35,19.35,0,0,1,32.79,13.6ZM52.14,119.52a19.35,19.35,0,1,1-38.7,0v-8.69c0-7.68,6.08-15,16.27-19.47A95.29,95.29,0,0,1,52.14,84.8Zm67.07,19.3a19.34,19.34,0,0,1-19.35-19.3V81.14a110.26,110.26,0,0,0,27.86-7.88,50.52,50.52,0,0,0,10.81-6.45v52.71a19.35,19.35,0,0,1-19.32,19.3ZM122.29,61a95.29,95.29,0,0,1-22.43,6.56V32.9a19.35,19.35,0,1,1,38.7,0v8.69C138.56,49.23,132.48,56.5,122.29,61Z"/></svg>